<svg viewBox="98.154 26.999 303.69 446.002" xmlns="http://www.w3.org/2000/svg" xmlns:xlink="http://www.w3.org/1999/xlink"><linearGradient id="a" gradientTransform="matrix(3.1257 0 0 -3.1257 -318.006 1141.636)" gradientUnits="userSpaceOnUse" x1="183.69" x2="229.302" y1="305.461" y2="254.627"><stop offset="0" stop-color="#37bdff"/><stop offset=".25" stop-color="#26c6f4"/><stop offset=".5" stop-color="#15d0e9"/><stop offset=".75" stop-color="#3bd6df"/><stop offset="1" stop-color="#62dcd4"/></linearGradient><linearGradient id="b" gradientTransform="matrix(3.1257 0 0 -3.1257 -318.006 1141.636)" gradientUnits="userSpaceOnUse" x1="150.92" x2="149.453" y1="236" y2="348.805"><stop offset="0" stop-color="#1b48ef"/><stop offset=".5" stop-color="#2080f1"/><stop offset="1" stop-color="#26b8f4"/></linearGradient><linearGradient id="c" gradientTransform="matrix(3.1257 0 0 -3.1257 -318.006 1141.636)" gradientUnits="userSpaceOnUse" x1="178.928" x2="289.324" y1="240.707" y2="240.707"><stop offset="0" stop-color="#39d2ff"/><stop offset=".5" stop-color="#248ffa"/><stop offset="1" stop-color="#104cf5"/></linearGradient><linearGradient id="d" gradientTransform="matrix(3.1257 0 0 -3.1257 -318.006 1141.636)" gradientUnits="userSpaceOnUse" x1="178.928" x2="289.324" y1="240.615" y2="240.615"><stop offset="0" stop-color="#fff"/><stop offset="1"/></linearGradient><path d="m237.456 181.676c-.067.535-.067 1.143-.067 1.74 0 2.32.463 4.55 1.299 6.602l.747 1.539 2.955 7.561 15.352 39.163 13.389 34.2c3.82 6.904 9.937 12.324 17.314 15.212l2.292.842c.089.028.24.028.362.061l36.698 12.619v.028l14.03 4.818.959.323c.033 0 .089.033.123.033a50.594 50.594 0 0 1 8.063 2.777c5.983 2.582 11.409 6.262 16.043 10.751a51.763 51.763 0 0 1 5.175 5.76 49.465 49.465 0 0 1 3.703 5.42c4.896 8.13 7.706 17.688 7.706 27.865 0 1.818-.089 3.574-.273 5.359a29.924 29.924 0 0 1 -.273 2.297v.061a79.005 79.005 0 0 1 -.424 2.431c-.156.786-.301 1.567-.48 2.348a4.916 4.916 0 0 1 -.095.273 38.776 38.776 0 0 1 -.597 2.359 22.404 22.404 0 0 1 -.714 2.225 24.242 24.242 0 0 1 -.842 2.32 22.075 22.075 0 0 1 -.959 2.32 48.484 48.484 0 0 1 -3.502 6.597 54.624 54.624 0 0 1 -5.838 7.779c17.22-18.513 28.668-42.419 31.517-68.873.48-4.338.725-8.738.725-13.166 0-2.827-.123-5.626-.307-8.437-2.169-31.724-16.612-60.096-38.655-80.344-6.078-5.627-12.72-10.634-19.863-14.883l-13.495-6.898-68.382-35.092a16.832 16.832 0 0 0 -6.653-1.361c-8.852.003-16.163 6.756-17.033 15.371z" fill="#7f7f7f"/><path d="m237.456 181.676c-.067.535-.067 1.143-.067 1.74 0 2.32.463 4.55 1.299 6.602l.747 1.539 2.955 7.561 15.352 39.163 13.389 34.2c3.82 6.904 9.937 12.324 17.314 15.212l2.292.842c.089.028.24.028.362.061l36.698 12.619v.028l14.03 4.818.959.323c.033 0 .089.033.123.033a50.594 50.594 0 0 1 8.063 2.777c5.983 2.582 11.409 6.262 16.043 10.751a51.763 51.763 0 0 1 5.175 5.76 49.465 49.465 0 0 1 3.703 5.42c4.896 8.13 7.706 17.688 7.706 27.865 0 1.818-.089 3.574-.273 5.359a29.924 29.924 0 0 1 -.273 2.297v.061a79.005 79.005 0 0 1 -.424 2.431c-.156.786-.301 1.567-.48 2.348a4.916 4.916 0 0 1 -.095.273 38.776 38.776 0 0 1 -.597 2.359 22.404 22.404 0 0 1 -.714 2.225 24.242 24.242 0 0 1 -.842 2.32 22.075 22.075 0 0 1 -.959 2.32 48.484 48.484 0 0 1 -3.502 6.597 54.624 54.624 0 0 1 -5.838 7.779c17.22-18.513 28.668-42.419 31.517-68.873.48-4.338.725-8.738.725-13.166 0-2.827-.123-5.626-.307-8.437-2.169-31.724-16.612-60.096-38.655-80.344-6.078-5.627-12.72-10.634-19.863-14.883l-13.495-6.898-68.382-35.092a16.832 16.832 0 0 0 -6.653-1.361c-8.852.003-16.163 6.756-17.033 15.371z" fill="url(#a)"/><path d="m115.697 27c-9.731.173-17.543 8.136-17.543 17.872v311.75c.039 2.175.162 4.322.318 6.502.139 1.149.29 2.342.502 3.502 4.444 25.021 26.214 44.008 52.501 44.008a53.329 53.329 0 0 0 25.422-6.43c.045-.033.123-.078.162-.078l2.721-1.645 11.03-6.491 14.03-8.325.033-276.993c0-18.407-9.212-34.635-23.315-44.276a8.348 8.348 0 0 1 -.954-.652l-54.592-35.7c-2.766-1.829-6.101-2.978-9.675-3.045h-.64z" fill="#7f7f7f"/><path d="m115.697 27c-9.731.173-17.543 8.136-17.543 17.872v311.75c.039 2.175.162 4.322.318 6.502.139 1.149.29 2.342.502 3.502 4.444 25.021 26.214 44.008 52.501 44.008a53.329 53.329 0 0 0 25.422-6.43c.045-.033.123-.078.162-.078l2.721-1.645 11.03-6.491 14.03-8.325.033-276.993c0-18.407-9.212-34.635-23.315-44.276a8.348 8.348 0 0 1 -.954-.652l-54.592-35.7c-2.766-1.829-6.101-2.978-9.675-3.045h-.64z" fill="url(#b)"/><path d="m332.164 311.805-125.517 74.399-1.807 1.087v.396l-14.03 8.309-11.024 6.508-2.705 1.634-.184.089c-7.545 4.099-16.194 6.418-25.406 6.418-26.281 0-48.079-18.976-52.507-44.008 2.102 18.313 8.342 35.359 17.755 50.209 19.383 30.597 52.161 51.882 90.08 55.579h23.186c20.51-2.141 37.635-10.355 55.635-21.447l27.681-16.93c12.469-7.991 46.311-27.647 56.282-38.677a54.494 54.494 0 0 0 5.838-7.773 48.898 48.898 0 0 0 3.502-6.602c.335-.781.652-1.539.959-2.314.29-.77.563-1.545.842-2.331.519-1.506.931-3.017 1.327-4.573.201-.887.385-1.762.569-2.632.602-3.284.931-6.658.931-10.155 0-10.177-2.81-19.735-7.679-27.854a46.854 46.854 0 0 0 -3.703-5.42 50.8 50.8 0 0 0 -5.175-5.76c-4.634-4.489-10.043-8.169-16.043-10.757a49.053 49.053 0 0 0 -8.063-2.771c-.033 0-.089-.033-.123-.033l-.959-.323z" fill="#7f7f7f"/><path d="m332.164 311.805-125.517 74.399-1.807 1.087v.396l-14.03 8.309-11.024 6.508-2.705 1.634-.184.089c-7.545 4.099-16.194 6.418-25.406 6.418-26.281 0-48.079-18.976-52.507-44.008 2.102 18.313 8.342 35.359 17.755 50.209 19.383 30.597 52.161 51.882 90.08 55.579h23.186c20.51-2.141 37.635-10.355 55.635-21.447l27.681-16.93c12.469-7.991 46.311-27.647 56.282-38.677a54.494 54.494 0 0 0 5.838-7.773 48.898 48.898 0 0 0 3.502-6.602c.335-.781.652-1.539.959-2.314.29-.77.563-1.545.842-2.331.519-1.506.931-3.017 1.327-4.573.201-.887.385-1.762.569-2.632.602-3.284.931-6.658.931-10.155 0-10.177-2.81-19.735-7.679-27.854a46.854 46.854 0 0 0 -3.703-5.42 50.8 50.8 0 0 0 -5.175-5.76c-4.634-4.489-10.043-8.169-16.043-10.757a49.053 49.053 0 0 0 -8.063-2.771c-.033 0-.089-.033-.123-.033l-.959-.323z" fill="url(#c)"/><path d="m383.573 358.992a55.64 55.64 0 0 1 -.937 10.16c-.178.87-.362 1.74-.569 2.621-.39 1.561-.803 3.073-1.322 4.584a86.458 86.458 0 0 1 -.842 2.32 58.45 58.45 0 0 1 -.965 2.32 48.967 48.967 0 0 1 -3.491 6.597 53.887 53.887 0 0 1 -5.844 7.773c-9.97 11.036-43.813 30.692-56.282 38.683l-27.681 16.93c-20.292 12.502-39.464 21.352-63.643 21.96-1.143.033-2.264.061-3.374.061-1.561 0-3.1-.028-4.645-.089-40.941-1.561-76.647-23.56-97.24-56.064a118.987 118.987 0 0 1 -17.755-50.209c4.428 25.032 26.225 44.008 52.507 44.008 9.212 0 17.861-2.325 25.406-6.418l.184-.095 2.705-1.628 11.024-6.508 14.03-8.309v-.396l1.807-1.087 125.518-74.406 9.664-5.727.959.323c.028 0 .089.033.123.033a48.954 48.954 0 0 1 8.063 2.771c6 2.587 11.404 6.268 16.043 10.757a51.485 51.485 0 0 1 5.175 5.76 46.98 46.98 0 0 1 3.703 5.42c4.868 8.12 7.679 17.678 7.679 27.855z" fill="#7f7f7f" opacity=".15"/><path d="m383.573 358.992a55.64 55.64 0 0 1 -.937 10.16c-.178.87-.362 1.74-.569 2.621-.39 1.561-.803 3.073-1.322 4.584a86.458 86.458 0 0 1 -.842 2.32 58.45 58.45 0 0 1 -.965 2.32 48.967 48.967 0 0 1 -3.491 6.597 53.887 53.887 0 0 1 -5.844 7.773c-9.97 11.036-43.813 30.692-56.282 38.683l-27.681 16.93c-20.292 12.502-39.464 21.352-63.643 21.96-1.143.033-2.264.061-3.374.061-1.561 0-3.1-.028-4.645-.089-40.941-1.561-76.647-23.56-97.24-56.064a118.987 118.987 0 0 1 -17.755-50.209c4.428 25.032 26.225 44.008 52.507 44.008 9.212 0 17.861-2.325 25.406-6.418l.184-.095 2.705-1.628 11.024-6.508 14.03-8.309v-.396l1.807-1.087 125.518-74.406 9.664-5.727.959.323c.028 0 .089.033.123.033a48.954 48.954 0 0 1 8.063 2.771c6 2.587 11.404 6.268 16.043 10.757a51.485 51.485 0 0 1 5.175 5.76 46.98 46.98 0 0 1 3.703 5.42c4.868 8.12 7.679 17.678 7.679 27.855z" fill="url(#d)" opacity=".15"/></svg>